<svg width="46" height="46" viewBox="0 0 46 46" fill="none" xmlns="http://www.w3.org/2000/svg">
<path fill-rule="evenodd" clip-rule="evenodd" d="M45.5 23C45.5 35.4263 35.4263 45.5 23 45.5C10.5736 45.5 0.5 35.4263 0.5 23C0.5 10.5736 10.5736 0.5 23 0.5C35.4263 0.5 45.5 10.5736 45.5 23ZM23.8062 17.1105C21.6178 18.0207 17.244 19.9047 10.6848 22.7624C9.61965 23.1861 9.0617 23.6005 9.01092 24.0055C8.92508 24.6904 9.78258 24.96 10.9502 25.3272C11.1091 25.3771 11.2737 25.4289 11.4424 25.4835C12.5912 25.857 14.1365 26.294 14.9399 26.3113C15.6686 26.3271 16.482 26.0267 17.3799 25.41C23.5085 21.2731 26.672 19.1822 26.8704 19.137C27.0106 19.1052 27.2048 19.0652 27.3364 19.1822C27.468 19.2992 27.455 19.5206 27.441 19.58C27.3562 19.9422 23.9902 23.0715 22.2483 24.6909C21.7053 25.1958 21.3201 25.5537 21.2414 25.6356C21.065 25.8188 20.8852 25.992 20.7124 26.1585C19.6452 27.1875 18.8447 27.959 20.7567 29.219C21.6756 29.8245 22.4107 30.3251 23.1442 30.8246C23.9452 31.3702 24.7442 31.9143 25.7781 32.592C26.0413 32.7645 26.2929 32.9439 26.5379 33.1185C27.4701 33.7831 28.3075 34.3803 29.3423 34.2849C29.9435 34.2297 30.5645 33.6643 30.8799 31.9782C31.6254 27.9934 33.0906 19.3595 33.4292 15.8018C33.4589 15.4901 33.4215 15.0912 33.3916 14.9161C33.3615 14.741 33.2989 14.4914 33.0712 14.3067C32.8017 14.088 32.3856 14.0419 32.1993 14.045C31.3531 14.0601 30.0546 14.5115 23.8062 17.1105Z" fill="white"/>
</svg>
