<svg width="44" height="44" viewBox="0 0 44 44" fill="none" xmlns="http://www.w3.org/2000/svg">
<path fill-rule="evenodd" clip-rule="evenodd" d="M2.65 2.65C-0.5 5.82999 -0.5 10.915 -0.5 21.1V22.9C-0.5 33.07 -0.5 38.155 2.65 41.35C5.82999 44.5 10.915 44.5 21.1 44.5H22.9C33.07 44.5 38.155 44.5 41.35 41.35C44.5 38.1701 44.5 33.0851 44.5 22.9V21.1C44.5 10.93 44.5 5.845 41.35 2.65C38.1701 -0.5 33.0851 -0.5 22.9 -0.5H21.1C10.93 -0.5 5.845 -0.5 2.65 2.65ZM7.08999 13.195C7.33 24.8951 13.18 31.9151 23.44 31.9151H24.0401V25.2249C27.805 25.6 30.6551 28.3601 31.7949 31.9151H37.12C36.5739 29.895 35.6055 28.0136 34.2791 26.3949C32.9528 24.7765 31.2983 23.4575 29.425 22.5249C31.1037 21.5027 32.5536 20.1451 33.684 18.5372C34.8144 16.9294 35.6012 15.1057 35.995 13.18H31.1649C30.1151 16.9 26.995 20.2749 24.0401 20.5899V13.195H19.1949V26.1551C16.195 25.4049 12.415 21.775 12.25 13.195H7.08999Z" fill="white"/>
</svg>
